<svg xmlns="http://www.w3.org/2000/svg" viewBox="0 0 512 512">
  <defs><linearGradient id="bg" x1="0" y1="0" x2="1" y2="1"><stop stop-color="#5eead4"/><stop offset="1" stop-color="#6c63ff"/></linearGradient></defs>
  <rect width="512" height="512" rx="120" fill="#101c3d"/>
  <path d="M96 176c78-72 242-72 320 0v194c-84-49-236-49-320 0z" fill="url(#bg)"/>
  <path d="M130 201c48-30 91-34 126-12v142c-38-21-80-18-126 8zm252 0c-48-30-91-34-126-12v142c38-21 80-18 126 8z" fill="#f7f8ff"/>
  <path d="M256 108l17 43 46 3-35 29 11 45-39-25-39 25 11-45-35-29 46-3z" fill="#ffd166"/>
</svg>
