<svg xmlns="http://www.w3.org/2000/svg" viewBox="0 0 100 100" role="img" aria-label="girasol">
  <title>girasol</title>
  <rect x="0" y="0" width="100" height="100" rx="14" fill="#ffffff" stroke="#cfd8dc" stroke-width="2"/>
  <circle cx="50" cy="46" r="18" fill="#ffca28"/><g fill="#a1887f"><circle cx="50" cy="46" r="7"/></g><g fill="#ffd54f"><polygon points="50,16 56,30 44,30"/><polygon points="50,76 56,62 44,62"/><polygon points="20,46 34,52 34,40"/><polygon points="80,46 66,52 66,40"/><polygon points="28,24 40,34 30,40"/><polygon points="72,24 60,34 70,40"/><polygon points="28,68 40,58 30,56"/><polygon points="72,68 60,58 70,56"/></g><rect x="47" y="64" width="6" height="22" fill="#388e3c"/>
</svg>
